<svg width="136" height="136" viewBox="0 0 136 136" fill="none" xmlns="http://www.w3.org/2000/svg">
  <path fill-rule="evenodd" clip-rule="evenodd"
    d="M4.59619 78.8424C2.05779 81.3808 2.05779 85.4964 4.59619 88.0348L24.0416 107.48L25.8094 109.248L27.5772 111.016L47.0226 130.461C49.561 133 53.6766 133 56.215 130.461L130.461 56.215C133 53.6766 133 49.561 130.461 47.0226L112.076 28.6378C109.538 26.0994 105.422 26.0994 102.884 28.6378L53.7401 77.7817L34.2947 58.3363C31.7563 55.7979 27.6407 55.7979 25.1023 58.3363L4.59619 78.8424ZM50.2046 81.3173L30.7591 61.8718C30.1734 61.2861 29.2236 61.2861 28.6378 61.8718L8.13173 82.3779C7.54594 82.9637 7.54594 83.9135 8.13173 84.4993L27.5772 103.945L50.2046 81.3173ZM31.1127 107.48L50.5581 126.926C51.1439 127.511 52.0937 127.511 52.6795 126.926L126.926 52.6795C127.511 52.0937 127.511 51.1439 126.926 50.5581L108.541 32.1734C107.955 31.5876 107.005 31.5876 106.42 32.1734L57.2756 81.3173L55.5079 83.085L31.1127 107.48Z"
    fill="#0078D4" />
</svg>